<svg xmlns="http://www.w3.org/2000/svg" version="1.1" xmlns:xlink="http://www.w3.org/1999/xlink" xmlns:svgjs="http://svgjs.dev/svgjs" width="1000" height="1000" viewBox="0 0 1000 1000"><rect width="1000" height="1000" fill="#89939e"></rect><g transform="matrix(0.7,0,0,0.7,149.5757576281532,406.6450925646187)"><svg viewBox="0 0 396 106" data-background-color="#89939e" preserveAspectRatio="xMidYMid meet" height="267" width="1000" xmlns="http://www.w3.org/2000/svg" xmlns:xlink="http://www.w3.org/1999/xlink"><g id="tight-bounds" transform="matrix(1,0,0,1,0.24000002964100986,-0.05392912796781957)"><svg viewBox="0 0 395.52 106.1078607055472" height="106.1078607055472" width="395.52"><g><svg viewBox="0 0 1097.4134826015595 294.4078604072505" height="106.1078607055472" width="395.52"><g><svg viewBox="0 0 1097.4134826015595 294.4078604072505" height="294.4078604072505" width="1097.4134826015595"><g><svg viewBox="0 0 1097.4134826015595 294.4078604072505" height="294.4078604072505" width="1097.4134826015595"><g><svg viewBox="0 0 1097.4134826015595 245.67230399999997" height="245.67230399999997" width="1097.4134826015595"><g><svg><g></g><g></g></svg></g><g><svg><g></g><g><svg></svg></g></svg></g><g id="text-0"><svg viewBox="0 0 1097.4134826015595 245.67230399999997" height="245.67230399999997" width="1097.4134826015595"><g transform="matrix(1,0,0,1,0,91.10312010389609)"><svg width="245.67230399999997" viewBox="2.1500000953674316 -35.79999923706055 142.44000244140625 36.79999923706055" height="63.466063792207784" data-palette-color="#ffffff"><path d="M22.6-18.45Q26.05-17.75 28.2-15.88 30.35-14 30.35-10.3L30.35-10.3Q30.35-4.55 26.18-2.27 22 0 14.35 0L14.35 0 2.15 0 2.15-34.8 13-34.8Q20.75-34.8 24.83-32.73 28.9-30.65 28.9-25.8L28.9-25.8Q28.9-22.7 27.1-20.93 25.3-19.15 22.6-18.45L22.6-18.45ZM13.95-27.75L12.45-27.75 12.45-21.35 14.2-21.35Q16.55-21.35 17.5-22.13 18.45-22.9 18.45-24.75L18.45-24.75Q18.45-26.3 17.43-27.03 16.4-27.75 13.95-27.75L13.95-27.75ZM14.45-7.25Q17.05-7.25 18.4-8.05 19.75-8.85 19.75-11L19.75-11Q19.75-13 18.53-13.93 17.3-14.85 14.85-14.85L14.85-14.85 12.45-14.85 12.45-7.25 14.45-7.25ZM33.25-34.8L43.55-34.8 43.55 0 33.25 0 33.25-34.8ZM76.4 0L66.1 0 66.1-14.05 58.15-14.05 58.15 0 47.85 0 47.85-34.8 58.15-34.8 58.15-21.95 66.1-21.95 66.1-34.8 76.4-34.8 76.4 0ZM108.94-34.8L108.94 0 96.04 0 88.44-25.4 88.59-24.3Q89.14-20.65 89.47-17.63 89.79-14.6 89.79-10.8L89.79-10.8 89.79 0 80.69 0 80.69-34.8 93.34-34.8 101.24-9.3 101.09-10.35Q100.49-13.8 100.17-16.78 99.84-19.75 99.84-23.65L99.84-23.65 99.84-34.8 108.94-34.8ZM128.34-35.8Q136.14-35.8 140.37-30.98 144.59-26.15 144.59-17.45L144.59-17.45Q144.59-11.8 142.69-7.65 140.79-3.5 137.14-1.25 133.49 1 128.34 1L128.34 1Q120.54 1 116.32-3.88 112.09-8.75 112.09-17.45L112.09-17.45Q112.09-23.1 113.99-27.23 115.89-31.35 119.54-33.58 123.19-35.8 128.34-35.8L128.34-35.8ZM128.34-28.5Q125.39-28.5 124.09-25.98 122.79-23.45 122.79-17.45L122.79-17.45Q122.79-11.45 124.09-8.88 125.39-6.3 128.34-6.3L128.34-6.3Q131.34-6.3 132.62-8.85 133.89-11.4 133.89-17.45L133.89-17.45Q133.89-23.45 132.59-25.98 131.29-28.5 128.34-28.5L128.34-28.5Z" opacity="1" transform="matrix(1,0,0,1,0,0)" fill="#ffffff" class="undefined-o-0"></path></svg></g><g><svg xmlns="http://www.w3.org/2000/svg" xmlns:xlink="http://www.w3.org/1999/xlink" version="1.1" viewBox="24 0.016002655029296875 48 95.96800231933594" x="259.729904" y="0" height="245.67230399999997" width="122.8771080673423" class="icon-a-0" data-fill-palette-color="accent" id="a-0"><path d="M62 44.016h-28c-1.1 0-2-0.896-2-2v-16.064c0-9.196 7.292-16.964 15.92-16.964 9.164 0 16.08 6.46 16.08 15.028v18c0 1.104-0.9 2-2 2zM36 40.016h24v-16c0-6.288-5.192-11.028-12.08-11.028-6.348 0-11.92 6.06-11.92 12.964v14.064z" fill="#ffffff" data-fill-palette-color="accent"></path><path d="M48 95.984c-12.7 0-24-8.444-24-15.1v-56.868c0-13.236 10.764-24 24-24s24 10.764 24 24v56.868c0 6.656-11.3 15.1-24 15.1zM48 4.016c-11.028 0-20 8.972-20 20v56.868c0 3.704 8.644 11.1 20 11.1s20-7.404 20-11.1v-56.868c0-11.028-8.972-20-20-20z" fill="#ffffff" data-fill-palette-color="accent"></path><path d="M48.124 71.86c-3.756 0-7.548-0.264-12.564-0.808-1.092-0.112-1.896-1.104-1.768-2.2 0.112-1.1 1.128-1.892 2.204-1.772 9.768 1.052 14.492 1.052 24.008 0.008 1.084-0.112 2.084 0.672 2.208 1.764 0.12 1.1-0.672 2.084-1.764 2.208-4.868 0.532-8.584 0.8-12.324 0.8z" fill="#ffffff" data-fill-palette-color="accent"></path><path d="M47.996 79.796c-2.676 0-5.352-0.132-8.872-0.392-1.1-0.08-1.928-1.04-1.852-2.144 0.084-1.096 1.108-1.924 2.14-1.844 6.9 0.504 10.256 0.504 17.172 0 1.016-0.088 2.06 0.748 2.14 1.844 0.08 1.104-0.752 2.068-1.86 2.144-3.516 0.268-6.192 0.392-8.868 0.392z" fill="#ffffff" data-fill-palette-color="accent"></path></svg></g><g transform="matrix(1,0,0,1,396.66461206734226,46.923410063999995)"><svg width="700.7488705342173" viewBox="2.1500000953674316 -35.79999923706055 169.8400115966797 36.79999923706055" height="151.82548387199998" data-palette-color="#ffffff"><path d="M2.15-34.8L12.45-34.8 12.45-7.9 25.6-7.9 24.55 0 2.15 0 2.15-34.8ZM28.25-34.8L51.1-34.8 50.05-27.65 38.55-27.65 38.55-21.15 48.65-21.15 48.65-14.2 38.55-14.2 38.55-7.2 50.85-7.2 50.85 0 28.25 0 28.25-34.8ZM83.39 0L72.5 0 71.14-6.75 62.89-6.75 61.59 0 50.84 0 60.99-34.8 73.3-34.8 83.39 0ZM67-27.6L64.34-13.95 69.69-13.95 67-27.6ZM100.69-35.8Q104.44-35.8 107.57-34.55 110.69-33.3 113.04-31.25L113.04-31.25 108.04-26.05Q106.19-27.4 104.69-28 103.19-28.6 101.29-28.6L101.29-28.6Q97.64-28.6 95.69-25.83 93.74-23.05 93.74-17.4L93.74-17.4Q93.74-13.15 94.34-10.73 94.94-8.3 96.22-7.3 97.49-6.3 99.59-6.3L99.59-6.3Q101.44-6.3 103.14-7.15L103.14-7.15 103.14-13.5 99.64-13.5 98.69-20.45 113.04-20.45 113.04-3Q110.29-1.1 106.74-0.05 103.19 1 99.89 1L99.89 1Q91.34 1 87.24-3.68 83.14-8.35 83.14-17.45L83.14-17.45Q83.14-23.2 85.39-27.35 87.64-31.5 91.64-33.65 95.64-35.8 100.69-35.8L100.69-35.8ZM145.34-34.8L145.34-11.8Q145.34-8.15 143.74-5.25 142.14-2.35 138.89-0.68 135.64 1 130.89 1L130.89 1Q123.74 1 120.09-2.45 116.44-5.9 116.44-11.8L116.44-11.8 116.44-34.8 126.74-34.8 126.74-12.1Q126.74-9.15 127.71-7.78 128.69-6.4 130.89-6.4L130.89-6.4Q133.09-6.4 134.06-7.78 135.04-9.15 135.04-12.1L135.04-12.1 135.04-34.8 145.34-34.8ZM149.14-34.8L171.99-34.8 170.94-27.65 159.44-27.65 159.44-21.15 169.54-21.15 169.54-14.2 159.44-14.2 159.44-7.2 171.74-7.2 171.74 0 149.14 0 149.14-34.8Z" opacity="1" transform="matrix(1,0,0,1,0,0)" fill="#ffffff" class="undefined-o-1"></path></svg></g></svg></g></svg></g><g transform="matrix(1,0,0,1,209.60597517689786,260.6551184758092)"><svg viewBox="0 0 678.2015322477638 33.752741931441285" height="33.752741931441285" width="678.2015322477638"><g transform="matrix(1,0,0,1,0,0)"><svg width="678.2015322477638" viewBox="-0.30000001192092896 -43.650001525878906 1142.2100830078125 56.85000228881836" height="33.752741931441285" data-palette-color="#ffffff"><path d="M25.55-15.55L25.55-4.7 31.1-3.2 29.5 0.05 12.1 0.05 12.1-2.75 16.8-6.45 16.8-13.1 3.35-34.15-0.3-36 0.7-39.25 17.75-39.25 17.75-36.45 14-33.55 22.95-19.6 31.9-32.55 24.6-36.05 26.2-39.3 42.35-39.3 42.35-36.5 37.4-32.9 25.55-15.55ZM54.9-27.45Q58.6-27.45 61.5-25.73 64.4-24 66.02-21 67.65-18 67.65-14.35L67.65-14.35Q67.65-10.4 65.1-6.98 62.55-3.55 58.72-1.53 54.9 0.5 51.35 0.5L51.35 0.5Q47.7 0.5 44.77-1.23 41.85-2.95 40.22-5.95 38.6-8.95 38.6-12.6L38.6-12.6Q38.6-16.55 41.15-19.98 43.7-23.4 47.52-25.43 51.35-27.45 54.9-27.45L54.9-27.45ZM52-21.65Q49.9-21.65 48.82-19.98 47.75-18.3 47.75-15L47.75-15Q47.75-10.8 49.45-8.03 51.15-5.25 54.25-5.25L54.25-5.25Q56.3-5.25 57.37-6.98 58.45-8.7 58.45-12L58.45-12Q58.45-16.2 56.75-18.93 55.05-21.65 52-21.65L52-21.65ZM105.19-3.25L103.59 0 92.19 0 92.19-4.3 86.8 0.15Q85.44 0.55 83.75 0.55L83.75 0.55Q79.89 0.55 77.64-1.53 75.39-3.6 75.39-7.15L75.39-7.15 75.39-17.9 70.94-20.45 70.94-23.25 80.75-27.6 83.89-27.6 83.89-10.9Q83.89-8.5 84.59-7.55 85.3-6.6 87.09-6.6L87.09-6.6Q89.69-6.6 92.19-8.3L92.19-8.3 92.19-17.9 87.75-20.45 87.75-23.25 97.55-27.6 100.69-27.6 100.69-4.75 105.19-3.25ZM145.59-40.3Q148.49-40.3 152.37-39.55 156.24-38.8 158.04-37.95L158.04-37.95 158.04-27.3 153.29-27.3Q149.44-34.55 142.69-34.55L142.69-34.55Q139.94-34.55 137.64-32.8 135.34-31.05 134.02-28 132.69-24.95 132.69-21.15L132.69-21.15Q132.69-16.85 134.02-13.28 135.34-9.7 138.04-7.58 140.74-5.45 144.74-5.45L144.74-5.45Q149.29-5.45 157.69-10.45L157.69-10.45 159.69-7.25 150.49-0.1Q148.29 0.55 146.27 0.78 144.24 1 141.94 1L141.94 1Q136.34 1 131.99-1.55 127.64-4.1 125.24-8.58 122.84-13.05 122.84-18.75L122.84-18.75Q122.84-24.6 126.44-29.58 130.04-34.55 135.39-37.43 140.74-40.3 145.59-40.3L145.59-40.3ZM194.39-3.25L192.79 0 181.39 0 181.39-4.35 175.74 0.1Q174.74 0.5 173.24 0.5L173.24 0.5Q168.44 0.5 166.31-1.85 164.19-4.2 164.19-7.5L164.19-7.5Q164.19-9.45 165.39-11.33 166.59-13.2 168.84-14.8L168.84-14.8 181.39-14.8 181.39-15.65Q181.39-18.4 179.89-19.7 178.39-21 175.89-21L175.89-21Q172.39-21 166.74-18.25L166.74-18.25 165.24-21.1 172.19-26.7Q174.74-27.45 178.14-27.45L178.14-27.45Q183.74-27.45 186.81-24.9 189.89-22.35 189.89-17.5L189.89-17.5 189.89-5 194.39-3.25ZM175.79-6.2Q178.34-6.2 181.39-8.3L181.39-8.3 181.39-11.5 173.34-11.5Q172.94-10.9 172.76-10.38 172.59-9.85 172.59-9.2L172.59-9.2Q172.59-7.95 173.46-7.1 174.34-6.25 175.79-6.25L175.79-6.25 175.79-6.2ZM231.64-3.25L229.99 0 218.64 0 218.64-16Q218.64-18.35 217.91-19.33 217.19-20.3 215.39-20.3L215.39-20.3Q212.74-20.3 210.14-18.6L210.14-18.6 210.14-4.75 214.64-3.25 212.99 0 197.19 0 197.19-2.8 201.64-6.55 201.64-17.9 197.19-20.7 197.19-23.5 207.59-27.9 209.54-22.1 215.74-27.05Q217.09-27.45 218.79-27.45L218.79-27.45Q222.59-27.45 224.86-25.38 227.14-23.3 227.14-19.75L227.14-19.75 227.14-4.75 231.64-3.25ZM245.28-19.2L241.28-19.15 235.23-32.9 235.23-35.7 243.93-39.3 247.08-39.3 245.28-19.2ZM274.13-3.9L269.08 0.1Q267.38 0.5 265.03 0.5L265.03 0.5Q260.23 0.5 258-1.68 255.78-3.85 255.78-8.4L255.78-8.4 255.78-22.15 250.38-22.15 250.38-24.8 261.13-36.5 264.28-36.5 264.28-25.45 273.28-25.45 273.28-22.15 264.28-22.15 264.28-8.75Q264.28-5.3 268.18-5.3L268.18-5.3Q269.18-5.3 270.16-5.63 271.13-5.95 272.63-6.75L272.63-6.75 274.13-3.9ZM310.38-3.3L308.78-0.05 291.07-0.05 291.07-2.85 295.78-6.8 295.78-34.5 290.23-36.1 291.88-39.35 309.57-39.35 309.57-36.55 304.82-32.55 304.82-4.85 310.38-3.3ZM363.82-3.25L362.22 0 350.82 0 350.82-16.6Q350.82-18.65 350.2-19.48 349.57-20.3 347.92-20.3L347.92-20.3Q345.47-20.3 343.12-18.6L343.12-18.6 343.12-4.65 347.32-3.25 345.72 0 334.62 0 334.62-16.6Q334.62-18.65 334-19.48 333.37-20.3 331.72-20.3L331.72-20.3Q329.27-20.3 326.97-18.6L326.97-18.6 326.97-4.65 331.12-3.25 329.52 0 314.02 0 314.02-2.8 318.47-6.55 318.47-17.9 314.02-20.7 314.02-23.5 324.42-27.9 326.37-22.1 332.37-27.05Q333.57-27.45 335.12-27.45L335.12-27.45Q338.07-27.45 340.1-26.08 342.12-24.7 342.82-22.3L342.82-22.3 348.62-27.05Q349.82-27.45 351.37-27.45L351.37-27.45Q355.02-27.45 357.2-25.38 359.37-23.3 359.37-19.75L359.37-19.75 359.37-4.75 363.82-3.25ZM397.12-3.25L395.52 0 384.12 0 384.12-4.35 378.47 0.1Q377.47 0.5 375.97 0.5L375.97 0.5Q371.17 0.5 369.05-1.85 366.92-4.2 366.92-7.5L366.92-7.5Q366.92-9.45 368.12-11.33 369.32-13.2 371.57-14.8L371.57-14.8 384.12-14.8 384.12-15.65Q384.12-18.4 382.62-19.7 381.12-21 378.62-21L378.62-21Q375.12-21 369.47-18.25L369.47-18.25 367.97-21.1 374.92-26.7Q377.47-27.45 380.87-27.45L380.87-27.45Q386.47-27.45 389.55-24.9 392.62-22.35 392.62-17.5L392.62-17.5 392.62-5 397.12-3.25ZM378.52-6.2Q381.07-6.2 384.12-8.3L384.12-8.3 384.12-11.5 376.07-11.5Q375.67-10.9 375.5-10.38 375.32-9.85 375.32-9.2L375.32-9.2Q375.32-7.95 376.2-7.1 377.07-6.25 378.52-6.25L378.52-6.25 378.52-6.2ZM429.57-22.1L424.42-22.1Q425.27-20.5 425.27-18.7L425.27-18.7Q425.27-15.65 422.69-12.83 420.12-10 416.32-8.55L416.32-8.55Q415.02-7.05 415.02-5.55L415.02-5.55Q415.02-4.85 416.12-4.17 417.22-3.5 419.57-2.45L419.57-2.45Q423.02-0.95 424.87 0.33 426.72 1.6 426.72 3.3L426.72 3.3Q426.72 4.9 424.72 7.28 422.72 9.65 419.74 11.43 416.77 13.2 413.97 13.2L413.97 13.2Q410.92 13.2 406.72 12.25 402.52 11.3 399.72 10.35L399.72 10.35 399.72 1.4 402.87 1.4Q405.32 4.7 407.84 6.43 410.37 8.15 413.57 8.15L413.57 8.15Q415.22 8.15 416.34 7.43 417.47 6.7 417.47 5.9L417.47 5.9Q417.47 4.75 416.14 3.88 414.82 3 412.07 1.75L412.07 1.75Q409.12 0.45 407.62-0.58 406.12-1.6 406.12-2.95L406.12-2.95Q406.12-4.15 407.94-5.4 409.77-6.65 412.32-7.6L412.32-7.6Q411.32-7.5 410.82-7.5L410.82-7.5Q407.77-7.5 405.24-8.7 402.72-9.9 401.27-11.93 399.82-13.95 399.82-16.25L399.82-16.25Q399.82-19.1 401.92-21.7 404.02-24.3 407.37-25.88 410.72-27.45 414.22-27.45L414.22-27.45Q418.22-27.45 421.27-25.45L421.27-25.45 429.52-25.45 429.57-22.1ZM413.77-13.2Q415.37-13.2 416.24-13.98 417.12-14.75 417.12-16.3L417.12-16.3Q417.12-18.75 415.54-20.18 413.97-21.6 411.37-21.6L411.37-21.6Q408.07-21.6 408.07-18.65L408.07-18.65Q408.07-16.25 409.64-14.73 411.22-13.2 413.77-13.2L413.77-13.2ZM449.37-3.25L447.72 0 431.92 0 431.92-2.8 436.37-6.55 436.37-18.15 431.92-21.1 431.92-23.9 441.72-27.9 444.87-27.9 444.87-4.75 449.37-3.25ZM440.57-42.95Q442.72-42.95 444.09-41.58 445.47-40.2 445.47-38.15L445.47-38.15Q445.47-36.7 444.47-35.45 443.47-34.2 441.97-33.45 440.47-32.7 439.07-32.7L439.07-32.7Q436.97-32.7 435.59-34.08 434.22-35.45 434.22-37.5L434.22-37.5Q434.22-38.95 435.22-40.2 436.22-41.45 437.69-42.2 439.17-42.95 440.57-42.95L440.57-42.95ZM486.76-3.25L485.11 0 473.76 0 473.76-16Q473.76-18.35 473.04-19.33 472.31-20.3 470.51-20.3L470.51-20.3Q467.86-20.3 465.26-18.6L465.26-18.6 465.26-4.75 469.76-3.25 468.11 0 452.31 0 452.31-2.8 456.76-6.55 456.76-17.9 452.31-20.7 452.31-23.5 462.71-27.9 464.66-22.1 470.86-27.05Q472.21-27.45 473.91-27.45L473.91-27.45Q477.71-27.45 479.99-25.38 482.26-23.3 482.26-19.75L482.26-19.75 482.26-4.75 486.76-3.25ZM506.26-27.45Q511.51-27.45 514.38-23.45 517.26-19.45 517.16-12.35L517.16-12.35 499.16-12.35Q499.66-9.3 501.31-7.48 502.96-5.65 505.61-5.65L505.61-5.65Q509.11-5.65 515.66-9.15L515.66-9.15 517.16-6.3 509.56-0.25Q506.61 0.5 502.71 0.5L502.71 0.5Q499.06 0.5 496.13-1.23 493.21-2.95 491.58-5.95 489.96-8.95 489.96-12.6L489.96-12.6Q489.96-16.55 492.51-19.98 495.06-23.4 498.88-25.43 502.71-27.45 506.26-27.45L506.26-27.45ZM503.51-21.65Q501.31-21.65 500.21-20.18 499.11-18.7 499.01-15.65L499.01-15.65 508.56-15.65Q508.16-18.75 507.08-20.2 506.01-21.65 503.46-21.65L503.46-21.65 503.51-21.65ZM598.15-36.55L593.1-32.7 581.95-1.65 573.35 0.9 566.25-19.2 560.65-1.65 552 0.9 538.75-33.65 533.8-36.1 535.4-39.35 551.6-39.35 551.6-36.55 548.1-33.95 558.05-7.5 563.9-25.75 561.1-33.65 556.55-36.05 558.15-39.3 575.65-39.3 575.65-36.5 570.65-33.4 579.5-7.45 588.25-32.35 580.35-36.05 582-39.3 598.1-39.3 598.15-36.55ZM633.7-3.25L632.05 0 620.7 0 620.7-16Q620.7-18.35 619.98-19.33 619.25-20.3 617.45-20.3L617.45-20.3Q614.8-20.3 612.2-18.6L612.2-18.6 612.2-4.75 616.7-3.25 615.05 0 599.25 0 599.25-2.8 603.7-6.55 603.7-33.9 599.25-36.85 599.25-39.65 609.05-43.65 612.2-43.65 612.2-22.55 617.8-27.05Q619.15-27.45 620.85-27.45L620.85-27.45Q624.65-27.45 626.93-25.38 629.2-23.3 629.2-19.75L629.2-19.75 629.2-4.75 633.7-3.25ZM666.9-3.25L665.3 0 653.9 0 653.9-4.35 648.25 0.1Q647.25 0.5 645.75 0.5L645.75 0.5Q640.95 0.5 638.82-1.85 636.7-4.2 636.7-7.5L636.7-7.5Q636.7-9.45 637.9-11.33 639.1-13.2 641.35-14.8L641.35-14.8 653.9-14.8 653.9-15.65Q653.9-18.4 652.4-19.7 650.9-21 648.4-21L648.4-21Q644.9-21 639.25-18.25L639.25-18.25 637.75-21.1 644.7-26.7Q647.25-27.45 650.65-27.45L650.65-27.45Q656.25-27.45 659.32-24.9 662.4-22.35 662.4-17.5L662.4-17.5 662.4-5 666.9-3.25ZM648.3-6.2Q650.85-6.2 653.9-8.3L653.9-8.3 653.9-11.5 645.85-11.5Q645.45-10.9 645.27-10.38 645.1-9.85 645.1-9.2L645.1-9.2Q645.1-7.95 645.97-7.1 646.85-6.25 648.3-6.25L648.3-6.25 648.3-6.2ZM691.6-3.9L686.55 0.1Q684.85 0.5 682.5 0.5L682.5 0.5Q677.7 0.5 675.47-1.68 673.25-3.85 673.25-8.4L673.25-8.4 673.25-22.15 667.85-22.15 667.85-24.8 678.6-36.5 681.75-36.5 681.75-25.45 690.75-25.45 690.75-22.15 681.75-22.15 681.75-8.75Q681.75-5.3 685.65-5.3L685.65-5.3Q686.65-5.3 687.62-5.63 688.6-5.95 690.1-6.75L690.1-6.75 691.6-3.9ZM743.24-40.15L743.24-27.4 740.49-26.3 734.14-35.45 722.29-35.45 722.29-21.95 728.24-21.95 731.89-27.55 734.69-27.55 734.69-12.9 731.44-11.3 728.19-18.1 722.29-18.1 722.29-5.1 730.99-3.2 729.34 0.05 708.54 0.05 708.54-2.75 713.24-6.45 713.24-34.4 707.69-36.05 709.34-39.3 739.64-39.3 743.24-40.15ZM764.74-3.25L763.09 0 747.29 0 747.29-2.8 751.74-6.55 751.74-18.15 747.29-21.1 747.29-23.9 757.09-27.9 760.24-27.9 760.24-4.75 764.74-3.25ZM755.94-42.95Q758.09-42.95 759.46-41.58 760.84-40.2 760.84-38.15L760.84-38.15Q760.84-36.7 759.84-35.45 758.84-34.2 757.34-33.45 755.84-32.7 754.44-32.7L754.44-32.7Q752.34-32.7 750.96-34.08 749.59-35.45 749.59-37.5L749.59-37.5Q749.59-38.95 750.59-40.2 751.59-41.45 753.06-42.2 754.54-42.95 755.94-42.95L755.94-42.95ZM802.14-3.25L800.49 0 789.14 0 789.14-16Q789.14-18.35 788.41-19.33 787.69-20.3 785.89-20.3L785.89-20.3Q783.24-20.3 780.64-18.6L780.64-18.6 780.64-4.75 785.14-3.25 783.49 0 767.69 0 767.69-2.8 772.14-6.55 772.14-17.9 767.69-20.7 767.69-23.5 778.09-27.9 780.04-22.1 786.24-27.05Q787.59-27.45 789.29-27.45L789.29-27.45Q793.09-27.45 795.36-25.38 797.64-23.3 797.64-19.75L797.64-19.75 797.64-4.75 802.14-3.25ZM834.53-22.1L829.38-22.1Q830.23-20.5 830.23-18.7L830.23-18.7Q830.23-15.65 827.66-12.83 825.08-10 821.28-8.55L821.28-8.55Q819.98-7.05 819.98-5.55L819.98-5.55Q819.98-4.85 821.08-4.17 822.18-3.5 824.53-2.45L824.53-2.45Q827.98-0.95 829.83 0.33 831.68 1.6 831.68 3.3L831.68 3.3Q831.68 4.9 829.68 7.28 827.68 9.65 824.71 11.43 821.73 13.2 818.93 13.2L818.93 13.2Q815.88 13.2 811.68 12.25 807.48 11.3 804.68 10.35L804.68 10.35 804.68 1.4 807.83 1.4Q810.28 4.7 812.81 6.43 815.33 8.15 818.53 8.15L818.53 8.15Q820.18 8.15 821.31 7.43 822.43 6.7 822.43 5.9L822.43 5.9Q822.43 4.75 821.11 3.88 819.78 3 817.03 1.75L817.03 1.75Q814.08 0.45 812.58-0.58 811.08-1.6 811.08-2.95L811.08-2.95Q811.08-4.15 812.91-5.4 814.73-6.65 817.28-7.6L817.28-7.6Q816.28-7.5 815.78-7.5L815.78-7.5Q812.73-7.5 810.21-8.7 807.68-9.9 806.23-11.93 804.78-13.95 804.78-16.25L804.78-16.25Q804.78-19.1 806.88-21.7 808.98-24.3 812.33-25.88 815.68-27.45 819.18-27.45L819.18-27.45Q823.18-27.45 826.23-25.45L826.23-25.45 834.48-25.45 834.53-22.1ZM818.73-13.2Q820.33-13.2 821.21-13.98 822.08-14.75 822.08-16.3L822.08-16.3Q822.08-18.75 820.51-20.18 818.93-21.6 816.33-21.6L816.33-21.6Q813.03-21.6 813.03-18.65L813.03-18.65Q813.03-16.25 814.61-14.73 816.18-13.2 818.73-13.2L818.73-13.2ZM853.53-27.45Q858.78-27.45 861.66-23.45 864.53-19.45 864.43-12.35L864.43-12.35 846.43-12.35Q846.93-9.3 848.58-7.48 850.23-5.65 852.88-5.65L852.88-5.65Q856.38-5.65 862.93-9.15L862.93-9.15 864.43-6.3 856.83-0.25Q853.88 0.5 849.98 0.5L849.98 0.5Q846.33 0.5 843.41-1.23 840.48-2.95 838.86-5.95 837.23-8.95 837.23-12.6L837.23-12.6Q837.23-16.55 839.78-19.98 842.33-23.4 846.16-25.43 849.98-27.45 853.53-27.45L853.53-27.45ZM850.78-21.65Q848.58-21.65 847.48-20.18 846.38-18.7 846.28-15.65L846.28-15.65 855.83-15.65Q855.43-18.75 854.36-20.2 853.28-21.65 850.73-21.65L850.73-21.65 850.78-21.65ZM886.08-20.35Q884.28-20.35 882.48-18.75L882.48-18.75 882.48-5.25 890.08-3.25 888.48 0 869.53 0 869.53-2.8 873.98-6.55 873.98-17.9 869.53-20.7 869.53-23.5 879.93-27.9 881.83-22.35 886.38-27.05Q887.43-27.45 888.83-27.45L888.83-27.45Q891.43-27.45 893.3-26.25 895.18-25.05 895.93-22.95L895.93-22.95 891.13-16.95 887.98-16.95Q887.93-18.75 887.48-19.53 887.03-20.3 886.08-20.3L886.08-20.3 886.08-20.35ZM912.48-6.35Q912.48-7.3 911.18-8.28 909.88-9.25 907.18-10.75L907.18-10.75Q904.53-12.25 902.93-13.33 901.33-14.4 900.15-15.78 898.98-17.15 898.98-18.75L898.98-18.75Q898.98-20.55 900.7-22.6 902.43-24.65 904.93-26.05 907.43-27.45 909.53-27.45L909.53-27.45Q912.08-27.45 915.5-26.88 918.93-26.3 920.48-25.6L920.48-25.6 920.48-17.25 917.33-17.25Q915.98-19.75 914.1-21.15 912.23-22.55 910.23-22.55L910.23-22.55Q909.23-22.55 908.63-21.98 908.03-21.4 908.03-20.6L908.03-20.6Q908.03-19.55 909.35-18.55 910.68-17.55 913.58-15.9L913.58-15.9Q917.43-13.8 919.5-12.1 921.58-10.4 921.58-8.2L921.58-8.2Q921.58-6.35 919.8-4.33 918.03-2.3 915.45-0.9 912.88 0.5 910.73 0.5L910.73 0.5Q907.98 0.5 904.2-0.08 900.43-0.65 898.83-1.35L898.83-1.35 898.83-10 901.98-10Q903.48-7.35 905.68-5.88 907.88-4.4 910.03-4.4L910.03-4.4Q911.13-4.4 911.8-4.98 912.48-5.55 912.48-6.35L912.48-6.35ZM963.37-40.3Q966.27-40.3 970.15-39.55 974.02-38.8 975.82-37.95L975.82-37.95 975.82-27.3 971.07-27.3Q967.22-34.55 960.47-34.55L960.47-34.55Q957.72-34.55 955.42-32.8 953.12-31.05 951.8-28 950.47-24.95 950.47-21.15L950.47-21.15Q950.47-16.85 951.8-13.28 953.12-9.7 955.82-7.58 958.52-5.45 962.52-5.45L962.52-5.45Q967.07-5.45 975.47-10.45L975.47-10.45 977.47-7.25 968.27-0.1Q966.07 0.55 964.05 0.78 962.02 1 959.72 1L959.72 1Q954.12 1 949.77-1.55 945.42-4.1 943.02-8.58 940.62-13.05 940.62-18.75L940.62-18.75Q940.62-24.6 944.22-29.58 947.82-34.55 953.17-37.43 958.52-40.3 963.37-40.3L963.37-40.3ZM1012.17-3.25L1010.57 0 999.17 0 999.17-4.35 993.52 0.1Q992.52 0.5 991.02 0.5L991.02 0.5Q986.22 0.5 984.09-1.85 981.97-4.2 981.97-7.5L981.97-7.5Q981.97-9.45 983.17-11.33 984.37-13.2 986.62-14.8L986.62-14.8 999.17-14.8 999.17-15.65Q999.17-18.4 997.67-19.7 996.17-21 993.67-21L993.67-21Q990.17-21 984.52-18.25L984.52-18.25 983.02-21.1 989.97-26.7Q992.52-27.45 995.92-27.45L995.92-27.45Q1001.52-27.45 1004.59-24.9 1007.67-22.35 1007.67-17.5L1007.67-17.5 1007.67-5 1012.17-3.25ZM993.57-6.2Q996.12-6.2 999.17-8.3L999.17-8.3 999.17-11.5 991.12-11.5Q990.72-10.9 990.54-10.38 990.37-9.85 990.37-9.2L990.37-9.2Q990.37-7.95 991.24-7.1 992.12-6.25 993.57-6.25L993.57-6.25 993.57-6.2ZM1049.42-3.25L1047.77 0 1036.42 0 1036.42-16Q1036.42-18.35 1035.69-19.33 1034.97-20.3 1033.17-20.3L1033.17-20.3Q1030.52-20.3 1027.92-18.6L1027.92-18.6 1027.92-4.75 1032.42-3.25 1030.77 0 1014.97 0 1014.97-2.8 1019.42-6.55 1019.42-17.9 1014.97-20.7 1014.97-23.5 1025.37-27.9 1027.32-22.1 1033.52-27.05Q1034.87-27.45 1036.57-27.45L1036.57-27.45Q1040.37-27.45 1042.64-25.38 1044.92-23.3 1044.92-19.75L1044.92-19.75 1044.92-4.75 1049.42-3.25ZM1088.11-39.8Q1093.71-39.8 1098.04-37.33 1102.36-34.85 1104.74-30.45 1107.11-26.05 1107.11-20.5L1107.11-20.5Q1107.11-14.8 1103.54-9.98 1099.96-5.15 1094.66-2.33 1089.36 0.5 1084.56 0.5L1084.56 0.5Q1082.26 0.5 1080.01 0.25L1080.01 0.25Q1076.26 0 1074.26 0L1074.26 0 1066.36 0 1066.36-2.8 1071.06-6.5 1071.06-34.35 1065.51-36.05 1067.16-39.3 1074.21-39.3Q1078.81-39.3 1083.21-39.6L1083.21-39.6Q1086.61-39.8 1088.11-39.8L1088.11-39.8ZM1086.01-4.15Q1089.16-4.15 1091.74-5.95 1094.31-7.75 1095.79-10.95 1097.26-14.15 1097.26-18.15L1097.26-18.15Q1097.26-22.95 1095.84-26.83 1094.41-30.7 1091.49-33.02 1088.56-35.35 1084.26-35.35L1084.26-35.35Q1082.01-35.35 1080.11-34.15L1080.11-34.15 1080.11-5.1Q1082.66-4.15 1085.96-4.15L1085.96-4.15 1086.01-4.15ZM1129.16-27.45Q1132.86-27.45 1135.76-25.73 1138.66-24 1140.28-21 1141.91-18 1141.91-14.35L1141.91-14.35Q1141.91-10.4 1139.36-6.98 1136.81-3.55 1132.98-1.53 1129.16 0.5 1125.61 0.5L1125.61 0.5Q1121.96 0.5 1119.03-1.23 1116.11-2.95 1114.48-5.95 1112.86-8.95 1112.86-12.6L1112.86-12.6Q1112.86-16.55 1115.41-19.98 1117.96-23.4 1121.78-25.43 1125.61-27.45 1129.16-27.45L1129.16-27.45ZM1126.26-21.65Q1124.16-21.65 1123.08-19.98 1122.01-18.3 1122.01-15L1122.01-15Q1122.01-10.8 1123.71-8.03 1125.41-5.25 1128.51-5.25L1128.51-5.25Q1130.56-5.25 1131.63-6.98 1132.71-8.7 1132.71-12L1132.71-12Q1132.71-16.2 1131.01-18.93 1129.31-21.65 1126.26-21.65L1126.26-21.65Z" opacity="1" transform="matrix(1,0,0,1,0,0)" fill="#ffffff" class="undefined-text-1" data-fill-palette-color="secondary" id="text-1"></path></svg></g></svg></g></svg></g></svg></g></svg></g><defs></defs></svg><rect width="395.52" height="106.1078607055472" fill="none" stroke="none" visibility="hidden"></rect></g></svg></g></svg>